<svg xmlns="http://www.w3.org/2000/svg" xmlns:xlink="http://www.w3.org/1999/xlink" width="500" zoomAndPan="magnify" viewBox="0 0 375 374.999991" height="500" preserveAspectRatio="xMidYMid meet" version="1.0"><path fill="#020202" d="M 364.890625 185.578125 L 365.378906 186.558594 L 361.453125 193.929688 L 354.085938 210.136719 L 347.210938 224.875 L 341.320312 237.644531 L 336.902344 247.46875 L 332.972656 254.839844 L 331.007812 252.875 L 325.117188 243.050781 L 320.207031 234.699219 L 320.207031 233.714844 L 317.753906 235.191406 L 309.894531 241.574219 L 304.984375 245.503906 L 298.113281 250.910156 L 290.253906 257.292969 L 285.34375 261.222656 L 278.472656 266.628906 L 270.125 273.503906 L 265.707031 276.941406 L 258.832031 282.347656 L 250.976562 288.730469 L 244.101562 294.136719 L 236.246094 300.519531 L 229.371094 305.925781 L 223.96875 310.34375 L 215.132812 317.222656 L 213.167969 319.1875 L 211.203125 318.203125 L 205.3125 311.328125 L 200.890625 305.925781 L 194.507812 298.554688 L 190.089844 293.152344 L 185.671875 288.242188 L 181.742188 283.328125 L 176.34375 276.941406 L 171.921875 271.539062 L 168.976562 268.101562 L 168.976562 267.117188 L 164.066406 269.082031 L 151.300781 275.960938 L 146.390625 278.90625 L 132.640625 286.277344 L 120.367188 293.152344 L 106.617188 300.519531 L 97.78125 305.433594 L 69.300781 321.152344 L 47.699219 332.941406 L 25.113281 345.710938 L 22.164062 347.1875 L 22.65625 345.710938 L 29.039062 341.292969 L 37.878906 334.90625 L 47.207031 328.027344 L 54.570312 322.625 L 81.085938 303.46875 L 90.414062 296.589844 L 99.253906 290.207031 L 108.582031 283.328125 L 115.457031 278.417969 L 133.132812 265.644531 L 142.460938 258.769531 L 160.140625 245.996094 L 178.796875 232.242188 L 185.671875 227.332031 L 187.144531 226.347656 L 192.054688 233.714844 L 203.347656 250.417969 L 214.148438 266.628906 L 219.550781 274.488281 L 220.53125 274.976562 L 231.335938 267.609375 L 239.191406 262.207031 L 262.269531 246.488281 L 274.542969 238.136719 L 288.292969 228.804688 L 298.113281 221.925781 L 305.476562 217.015625 L 304.496094 215.050781 L 292.21875 202.769531 L 290.253906 201.296875 L 290.253906 200.3125 L 325.609375 193.4375 L 361.453125 186.558594 Z M 364.890625 185.578125 " fill-opacity="1" fill-rule="nonzero"/><path fill="#000000" d="M 282.398438 46.566406 L 283.382812 46.566406 L 283.871094 48.039062 L 283.871094 217.507812 L 278.960938 221.4375 L 271.597656 226.347656 L 251.957031 240.101562 L 240.664062 247.960938 L 233.789062 252.875 L 232.808594 252.875 L 232.808594 78.003906 L 237.226562 75.054688 L 249.011719 67.6875 L 261.777344 59.828125 L 270.617188 54.425781 L 281.417969 47.546875 Z M 282.398438 46.566406 " fill-opacity="1" fill-rule="nonzero"/><path fill="#040404" d="M 105.636719 157.085938 L 106.617188 157.578125 L 106.617188 270.066406 L 104.164062 272.523438 L 98.761719 276.941406 L 92.378906 281.855469 L 83.542969 288.730469 L 75.683594 295.117188 L 69.300781 300.03125 L 62.429688 305.433594 L 57.027344 309.855469 L 56.046875 309.855469 L 55.554688 304.941406 L 55.554688 190 L 56.046875 188.523438 L 64.882812 183.121094 L 76.175781 175.753906 L 85.015625 170.351562 L 94.34375 164.457031 L 104.164062 158.070312 Z M 105.636719 157.085938 " fill-opacity="1" fill-rule="nonzero"/><path fill="#000000" d="M 194.019531 101.582031 L 195 102.070312 L 195 218.488281 L 193.035156 217.507812 L 189.597656 213.578125 L 188.617188 212.59375 L 186.160156 213.085938 L 180.269531 217.996094 L 172.414062 223.890625 L 167.503906 227.820312 L 161.121094 232.734375 L 152.773438 239.121094 L 145.898438 244.523438 L 144.425781 245.503906 L 143.933594 134.984375 L 144.425781 133.507812 L 153.753906 127.613281 L 166.03125 119.753906 L 184.6875 107.964844 L 192.054688 103.054688 Z M 194.019531 101.582031 " fill-opacity="1" fill-rule="nonzero"/></svg>